<svg height="308" viewBox="0 0 1107 308" xmlns="http://www.w3.org/2000/svg"><path d="M388,173 C388,173 399,173 399,173 C403,173 406,172 408,167 C409,164 406,163 402,163 L392,163 L388,173 M379,198 C379,198 391,198 391,198 C396,198 400,196 402,191 C403,187 401,185 397,185 L384,185 L379,198 M377,147 C377,147 413,147 413,147 C431,147 431,157 428,164 C426,170 421,174 416,177 C421,179 425,183 421,193 C417,206 403,213 391,213 L353,213 L377,147" fill="#ffbb00"/><path d="M447,147 L502,147 L496,164 L461,164 L458,172 L489,172 L484,188 L453,188 L450,196 L485,196 L479,213 L423,213 L447,147" fill="#ffbb00"/><path d="M521,164 L502,164 L508,147 L566,147 L560,164 L541,164 L524,213 L503,213 L521,164" fill="#ffbb00"/><path d="M586,190 L587,169 L573,190 L586,190 M585,147 L605,147 L606,213 L584,213 L585,204 L564,204 L558,213 L537,213 L585,147" fill="#ffbb00"/><path d="M635,147 L686,147 L680,164 L649,164 L646,172 L672,172 L667,188 L640,188 L631,213 L611,213 L635,147" fill="#3a3a3a"/><path d="M694,147 L714,147 L697,196 L726,196 L720,213 L670,213 L694,147" fill="#3a3a3a"/><path d="M751,147 L771,147 L748,213 L727,213 L751,147" fill="#3a3a3a"/><path d="M810,207 C803,212 795,215 788,215 C768,215 762,200 768,181 C777,156 799,145 814,145 C831,145 838,155 836,170 L816,170 C817,165 814,162 809,162 C795,162 790,177 789,181 C787,187 785,198 798,198 C802,198 808,196 811,191 L802,191 L807,177 L834,177 L821,213 L808,213 L810,207" fill="#3a3a3a"/><path d="M856,147 L876,147 L868,170 L887,170 L896,147 L916,147 L893,213 L872,213 L881,187 L862,187 L853,213 L833,213 L856,147" fill="#3a3a3a"/><path d="M935,164 L917,164 L923,147 L980,147 L974,164 L956,164 L938,213 L918,213 L935,164" fill="#3a3a3a"/><path d="M229,180 C229,180 206,192 213,213 C222,238 264,235 288,225 C309,216 292,209 292,209 L270,197 L238,177 L229,180" fill="#ffbb00"/><path d="M301,215 C300,212 299,206 299,206 C306,207 314,204 314,204 C309,211 301,215 301,215 M272,228 C269,229 267,229 265,230 C268,227 272,223 272,217 L272,228 M244,231 C240,230 236,229 232,227 C230,227 228,226 227,225 C234,223 245,218 254,208 C254,208 253,219 244,231 M215,210 C214,206 214,202 215,198 C221,202 230,204 242,200 C242,200 234,210 215,210 M197,154 C189,154 181,153 175,151 C166,148 158,142 153,133 C147,122 143,114 140,109 L151,113 L140,89 L239,144 C237,144 234,145 231,146 L168,121 L222,152 C213,153 202,154 197,154 M292,142 C298,145 307,160 307,160 C299,159 284,154 282,148 C280,142 286,140 292,142 M286,199 C271,193 260,183 249,179 C255,177 260,173 264,170 C267,167 268,162 268,158 C279,166 293,167 300,167 C307,167 313,169 315,172 C315,172 317,134 238,108 C238,108 261,119 269,128 C269,128 260,127 257,132 C255,135 255,139 256,144 C255,144 254,144 252,143 L126,74 L140,102 L127,98 L131,105 L136,115 L148,136 C158,153 175,161 197,160 C198,160 199,160 200,160 C206,160 214,159 223,158 C222,161 222,165 223,169 C224,174 226,178 229,180 C222,183 217,189 214,196 C214,196 213,196 213,197 C213,197 213,197 213,197 C212,201 211,207 213,213 C213,213 213,213 213,213 C214,215 214,216 215,217 C216,219 217,220 218,221 C232,238 266,235 287,226 C288,226 288,226 288,226 C290,225 292,224 293,223 C294,223 294,223 294,223 C296,222 298,221 300,220 C321,207 328,193 328,193 C328,193 307,208 286,199" fill="#3a3a3a"/><path d="M252,147 C252,147 229,142 226,159 C224,167 227,174 231,176 C233,175 235,174 240,174 C239,174 237,172 236,169 C238,169 239,169 242,169 C242,169 236,167 234,161 C234,160 234,160 234,160 C235,161 236,161 237,161 C237,161 233,158 236,153 C239,150 244,147 252,147" fill="#ffbb00"/></svg>
